<svg xmlns="http://www.w3.org/2000/svg" viewBox="0 0 1800 880" style="width:100%;height:100%"><defs><mask id="a"><g stroke-dashoffset="1"><path d="M17 2l43-58 61-98 21 69 39 80-40-60-66 18 167-122-10 68-4 93 29-63 21-20 19-9 19 15 4 22-17 29-56 45 119-80 29-90L374 5l39-52 22-27 20-11h12l3 27 2 28 28 10 39-26 11-16 21-28-6 46 6 27 15-168-7 175s14 5 17 3 40-27 40-27l25-27 17-39-9 79 20-19 10-15 21-22 11-8 15-2 7 35 8 15 6 15 19-4 20-11 16-13 33-29 24-22 29 1v38l-15 24-24 19-30 11-8-19 1-17 74 9 22 10 28-9 17-16 18-14 14-35-11 72 20-20 20-20 24-25 19 10 4 35 8 26 27-3 21-17 17-17 14-19 19-21 22-14 20 7 4 26-7 31-22 23-36 18-15-10 2-22 107-130v22l-5 32-5 22-1 16-2 23-3 17 20 16 23-9 15-16 18-22 22-16 17-16 22-5 11 9v19l-4 24-11 19-19 10-30 18-11-15 9-36 67 20 12 7h24l21-13 18-12 10-20 11-22-4 46-5 29 14-12 12-15 11-13 10-19 12-4 15-2 9 15 3 18 4 21 11 9h15l24-10 16-15 14-18L515 144l52-1 35-1 23 2 28-7 41-11h24l-79 27-4 15-4 36-3 32 2 36 123-121v34l-3 19-3 23-3 28 1 17 29-56 16-18 24-20 30 5 28-1-6 30-5 25 12 24 14 8 26-12-31-163 48 157 12-15 15-15 7-17 9-29 7-30 10-29-17 121 12 26 36-7 14-14 21-12 15-26 16-16 28-16 20 20 7 39-21 20-50 15-12-21 90-57 15 1 18 2h13l26-75-19 153 19-39 25-25 36-42-40 73 9 10 17 19 25 7 28-18 20-18 16-24 12-28-1 56 6 26 12-179-2 186 21-9 28-16 14-24 22-21 23-19 24-12 20 7-6 23-6 26-12 16-40 24-16-4 4-40 75 18 17 9 24-12 23-14 18-16" stroke-dasharray="9940" stroke-dashoffset="9940" fill="none" stroke-linecap="round" stroke="#fff" stroke-width="50"><animate attributeName="stroke-dashoffset" dur="6s" from="9940" to="0" fill="freeze"/></path></g></mask></defs><g clip-path="url(#__lottie_element_2)"><g mask="url(#a)" transform="translate(82 480)" fill="#1F61A5" stroke="#FFF" stroke-width=".25" font-size="230" font-family="Segoe Script" font-weight="400" aria-label="Abhinandan Trilokia" display="block"><path stroke-linejoin="round" d="M180.02-21.56c-4.86-6.59-7.67-10.75-8.42-12.47-2.02-4.64-3.76-8.8-5.22-12.46-1.46-3.67-2.72-6.93-3.76-9.77-1.05-2.85-2.4-6.56-4.05-11.12-1.64-4.57-3.55-10.07-5.72-16.51-2.18-6.52-4.21-12.48-6.12-17.91-1.91-5.43-3.73-10.43-5.45-15-3.37-9.05-6.93-17.52-10.67-25.38.15-2.54.26-4.75.34-6.62.07-1.87.15-3.41.22-4.61.07-.6.11-1.38.11-2.36v-3.36c0-1.87-.11-3.47-.33-4.78-.23-1.31-.68-2.36-1.35-3.14-.67-.79-1.61-1.35-2.81-1.69-1.2-.33-2.77-.5-4.72-.5-4.41 0-11 10.63-19.76 31.89-1.28 3.22-4.01 8.31-8.2 15.28-2.99 4.86-5.37 8.68-7.13 11.45-1.76 2.77-2.94 4.53-3.54 5.28-1.87 2.47-3.5 4.6-4.88 6.4-1.39 1.79-2.53 3.3-3.43 4.49-.82 1.2-1.82 2.55-2.97 4.04-1.17 1.5-2.46 3.22-3.88 5.17-1.42 1.87-2.66 3.56-3.71 5.06a317.87 317.87 0 01-2.69 3.81c-1.72 2.32-3.24 4.42-4.55 6.29-1.31 1.87-2.49 3.56-3.54 5.06-.97 1.5-2.21 3.33-3.7 5.5-1.5 2.17-3.22 4.75-5.17 7.75-4.04 5.84-7.69 11.1-10.95 15.78-3.25 4.68-6.46 9.08-9.6 13.19-1.57 2.25-3.9 5.09-6.96 8.54-3.22 3.59-5.28 5.43-6.18 5.5-2.77.52-4.96 1.11-6.57 1.74-1.61.64-2.41 1.67-2.41 3.09 0 2.69 1.87 5.24 5.61 7.64 3.29 1.94 7.41 2.92 12.35 2.92 3.9 0 7.9-1.99 12.02-5.96 4.2-3.96 9.28-10.21 15.27-18.75 6.14-8.61 10.19-14.23 12.13-16.85 2.03-2.54 4.16-4 6.41-4.38 4.94-.82 9.61-1.59 14.03-2.3 4.42-.71 8.65-1.46 12.69-2.24 4.05-.79 7.98-1.59 11.8-2.42 3.81-.82 7.59-1.76 11.34-2.81 1.12-.3 2.32-.67 3.59-1.12 1.27-.45 2.57-.86 3.88-1.23 1.31-.38 2.53-.72 3.65-1.02 1.12-.3 2.05-.45 2.8-.45 1.35 0 2.6-.01 3.77-.05 1.16-.04 2.28-.19 3.37-.45 1.08-.26 2.11-.68 3.08-1.24.98-.56 1.99-1.36 3.04-2.41.97 2.02 2.54 6.25 4.71 12.69.53 1.57 1.02 2.9 1.46 3.99.45 1.08.88 2.09 1.29 3.03.42.94.83 1.83 1.24 2.7.41.86.8 1.81 1.18 2.86 1.42 3.59 3.27 7.73 5.56 12.41 2.28 4.68 4.81 9.15 7.58 13.42 1.42 2.1 2.77 3.84 4.04 5.22 1.27 1.39 2.43 2.49 3.48 3.31.83.6 1.91.9 3.26.9 3.07 0 5.56-1.07 7.47-3.2 1.91-2.13 2.86-4.7 2.86-7.69 0-2.85-2.4-7.56-7.19-14.15zm-54.13-48.91c-4.26 1.16-8.57 2.3-12.91 3.43-1.95.44-3.62.84-5 1.17-1.39.34-2.68.66-3.87.96-1.2.3-2.46.6-3.77.9-1.31.3-2.86.67-4.66 1.12-1.04.22-2.41.49-4.1.79-1.68.29-3.44.58-5.27.84-1.84.26-3.64.48-5.39.67-1.76.19-3.21.28-4.33.28-.67 0-1.42-.15-2.24-.45 3.51-6.28 6.98-12.2 10.38-17.74 3.41-5.54 6.85-10.95 10.34-16.23a515.21 515.21 0 0110.83-15.78c3.75-5.24 7.72-10.7 11.91-16.39 1.72 3.44 3.46 7.37 5.22 11.79 1.76 4.42 3.48 9 5.17 13.76 1.68 4.75 3.31 9.5 4.88 14.26 1.57 4.75 3.03 9.19 4.38 13.31-3.44 1.04-7.3 2.15-11.57 3.31zm258.47-14.77c-.56-1.12-1.52-1.68-2.86-1.68-.6 0-2.63 1.12-6.07 3.37-1.72 1.04-3.59 2.24-5.61 3.59-2.02 1.35-4.2 2.77-6.52 4.27-2.32 1.5-4.15 2.67-5.5 3.53-1.35.87-2.25 1.45-2.7 1.75-2.69 1.64-5.67 3.48-8.92 5.5-3.26 2.02-6.57 4.1-9.94 6.23-3.37 2.13-6.71 4.25-10 6.35-3.29 2.09-6.33 4.04-9.1 5.84.83-1.43 1.76-3.05 2.81-4.89 1.05-1.83 2.1-4.47 3.15-7.92 2.17-6.96 3.25-11.79 3.25-14.48.08-4.12-.65-8.3-2.19-12.53-1.53-4.22-3.7-8.06-6.51-11.51-2.81-3.44-6.09-6.21-9.83-8.31-3.74-2.09-7.75-3.07-12.01-2.92-7.04 0-14.68 3-22.91 8.99-4.12 2.99-7.94 6.17-11.46 9.54-3.52 3.37-7.07 7.19-10.67 11.46-3.59 4.26-6.62 8.66-9.09 13.19-2.47 4.53-4.87 8.59-7.19 12.19.07-3.52.24-7.19.5-11.01.27-3.82.57-7.58.9-11.28.34-3.71.69-7.3 1.07-10.79.37-3.48.75-6.68 1.12-9.6 1.05-8.68 2.45-17.44 4.21-26.28 1.76-8.83 3.58-17.44 5.45-25.83 1.05-4.79 1.95-8.62 2.7-11.51.74-2.88 1.12-4.84 1.12-5.89 0-.6-.02-1.33-.06-2.19-.04-.86-.13-1.76-.28-2.7-.15-.93-.43-1.87-.84-2.81-.41-.93-.95-1.78-1.63-2.52-.67-.75-1.42-1.28-2.25-1.58-.82-.29-1.66-.48-2.52-.56-.86-.07-1.67-.09-2.42-.05-.75.03-1.42.05-2.02.05-.9 0-1.74.6-2.53 1.8-.78 1.2-1.51 2.55-2.18 4.04-.68 1.5-1.24 3-1.69 4.49-.45 1.5-.75 2.51-.9 3.04-1.2 4.49-2.23 8.98-3.09 13.47-.86 4.5-1.62 9.06-2.3 13.71-.67 4.64-1.33 9.47-1.96 14.48-.64 5.02-1.3 10.3-1.97 15.84-.67 5.54-1.29 10.7-1.85 15.5-.56 4.79-1.05 9.43-1.46 13.92-.41 4.49-.79 8.91-1.12 13.25-.34 4.34-.62 8.87-.85 13.59-.07.6-.15 1.74-.22 3.43-.08 1.68-.15 3.65-.23 5.89-.07 2.25-.16 4.65-.28 7.19-.11 2.55-.2 4.98-.28 7.3-.07 2.32-.15 4.38-.22 6.18-.08 1.79-.11 3.07-.11 3.81 0 5.32.73 9.27 2.19 11.85 1.46 2.59 3.87 3.88 7.24 3.88 2.32 0 4.29-.62 5.9-1.85 1.61-1.24 2.48-2.94 2.63-5.12l.45-9.2c.08-1.8.38-3.97.9-6.52.52-2.54 1.29-5.26 2.3-8.14 1.01-2.88 2.27-5.86 3.77-8.93 1.49-3.07 3.25-6.06 5.28-8.98 4.11-5.84 8.02-11.08 11.73-15.73 3.71-4.64 7.54-8.87 11.51-12.69 2.02-1.87 4.06-3.72 6.12-5.56 2.06-1.83 4.17-3.46 6.35-4.88 2.17-1.42 4.34-2.56 6.51-3.43 2.17-.86 4.38-1.29 6.63-1.29 2.09 0 3.99.92 5.67 2.75 1.68 1.84 3.13 4.01 4.32 6.52 1.2 2.51 2.12 5.07 2.75 7.69.64 2.62.96 4.72.96 6.29 0 8.98-2.66 17.03-7.98 24.15-2.62 3.51-5.7 6.98-9.26 10.38-3.56 3.41-7.62 6.8-12.19 10.17-.29.22-1.49 1.03-3.59 2.41-2.1 1.39-5.09 3.39-8.98 6.01-3.22 2.17-6.03 4.01-8.43 5.5-2.39 1.5-4.6 2.96-6.62 4.38a98.72 98.72 0 00-5.9 4.5c-1.91 1.57-3.98 3.48-6.23 5.72-1.2 1.2-1.8 2.55-1.8 4.05 0 2.39 1.2 4.15 3.6 5.27 2.32 1.13 4.86 1.69 7.63 1.69 5.09 0 9.62-1.46 13.59-4.38 7.42-5.47 14.15-11.23 20.22-17.3l6.45-6.45c1.84-1.84 3.58-3.28 5.23-4.33 1.72-1.04 4.13-2.5 7.24-4.38 3.1-1.87 7.02-4.11 11.74-6.74 4.71-2.61 9.35-5.27 13.92-7.97 4.57-2.69 9.21-5.42 13.93-8.2 4.71-2.77 9.13-5.46 13.25-8.08 4.12-2.62 8.01-5.17 11.68-7.64 3.67-2.47 6.74-4.73 9.21-6.79 2.47-2.06 4.41-3.95 5.84-5.68 2.09-2.54 3.14-4.97 3.14-7.3 0-1.27-.28-2.47-.84-3.59zm181.2 6.85c-1.2 0-5.43 3.33-12.69 10-3.67 3.44-6.89 6.47-9.66 9.09a108.26 108.26 0 01-8.37 7.19 109.02 109.02 0 01-9.09 6.29c-3.26 2.02-7.14 4.12-11.63 6.29-8.46 4.12-17.29 6.18-26.5 6.18-2.02 0-3.69-1.05-5-3.15-1.31-2.09-2.38-4.79-3.2-8.09-.82-3.29-1.5-6.96-2.02-11s-1.01-7.98-1.46-11.79c-.53-4.49-1.12-8.76-1.8-12.8-.67-4.05-1.76-8.09-3.25-12.14a7.868 7.868 0 00-1.69-2.75 13.52 13.52 0 00-2.42-2.02c-.86-.56-1.72-.99-2.58-1.29-.86-.3-1.55-.45-2.07-.45-2.85 0-5.84.68-8.99 2.02-3.14 1.35-6.27 3.07-9.38 5.17a84.28 84.28 0 00-8.92 6.96c-2.85 2.55-5.43 4.98-7.75 7.3-1.8 1.87-3.65 3.9-5.56 6.07-1.91 2.17-3.79 4.34-5.62 6.51s-3.59 4.32-5.28 6.46c-1.68 2.13-3.24 4.1-4.66 5.89-1.42 1.8-2.86 3.77-4.32 5.9-1.46 2.13-2.86 4.17-4.21 6.12-1.35 1.95-2.55 3.75-3.59 5.39-1.05 1.65-1.91 2.88-2.59 3.71h-.45c-.37 0-.8-.3-1.29-.9-.49-.6-.73-1.12-.73-1.57 0-3 .34-6.61 1.01-10.84.68-4.23 1.27-9.12 1.8-14.66.3-3.66.6-7.09.9-10.27.3-3.18.62-6.33.95-9.44.34-3.1.68-6.23 1.01-9.37.34-3.15.62-6.52.84-10.11.23-3.14.49-6.72.79-10.73.3-4 .66-8.06 1.07-12.18.41-4.12.84-8.16 1.29-12.13.45-3.97.97-7.49 1.57-10.56.15-.82.43-2.04.84-3.65.41-1.61.85-3.29 1.29-5.05.45-1.76.85-3.46 1.18-5.11.34-1.65.51-2.96.51-3.93 0-3.07-.88-5.47-2.64-7.19-1.76-1.72-3.73-2.58-5.9-2.58-1.05 0-2.07.24-3.08.73-1.01.49-1.95 1.07-2.81 1.74-.86.67-1.63 1.42-2.3 2.24-.68.83-1.17 1.58-1.46 2.25-.98 2.1-1.78 4.03-2.42 5.79-.64 1.76-1.12 3.52-1.46 5.27-.33 1.76-.6 3.54-.78 5.34-.19 1.79-.32 3.74-.4 5.84-.07 1.87-.17 4.17-.28 6.9-.11 2.74-.24 5.66-.39 8.76-.15 3.11-.3 6.31-.45 9.61-.15 3.29-.3 6.41-.45 9.37-.15 2.96-.3 5.67-.45 8.14-.15 2.47-.26 4.46-.34 5.96-.3 4.64-.71 9.84-1.23 15.61-.53 5.76-1.09 11.66-1.69 17.69-.6 6.02-1.23 12-1.91 17.91-.67 5.91-1.27 11.34-1.79 16.28-.3 2.55-.68 5.3-1.13 8.26-.44 2.96-.9 5.82-1.34 8.59-.45 2.77-.85 5.26-1.18 7.47-.34 2.2-.51 3.8-.51 4.77 0 1.12.32 2.26.96 3.43.63 1.15 1.46 2.19 2.47 3.08 1.01.9 2.13 1.63 3.37 2.19 1.23.57 2.45.85 3.65.85.52 0 1.49-.4 2.92-1.18 1.42-.79 2.76-2.16 4.04-4.1 2.32-4.27 5.03-9.27 8.14-15 3.11-5.72 6.57-11.43 10.39-17.12 4.34-6.59 9.02-13.07 14.04-19.43 5.01-6.36 9.92-12.07 14.71-17.13 4.79-5.05 9.21-9.13 13.25-12.24 4.05-3.1 7.23-4.66 9.55-4.66.6 0 1.14.55 1.63 1.63.48 1.09.91 2.49 1.29 4.21.37 1.72.71 3.63 1.01 5.73.3 2.1.54 4.14.73 6.12.18 1.98.35 3.8.5 5.45.15 1.64.27 2.88.34 3.7.6 5.24 1.39 10.15 2.36 14.71.97 4.57 2.43 8.69 4.38 12.36 1.94 3.67 4.62 6.32 8.03 7.97 3.41 1.65 7.32 2.47 11.73 2.47 5.77-.07 11.44-1.08 17.02-3.03 5.58-1.95 10.97-4.51 16.17-7.69 5.2-3.18 10.24-6.8 15.11-10.84 4.86-4.05 9.47-8.27 13.81-12.69 1.05-1.05 2.25-2.32 3.59-3.82 1.35-1.5 2.72-3.09 4.1-4.77 1.39-1.68 2.71-3.35 3.99-5 1.27-1.65 2.32-3.14 3.14-4.49 2.25-3.37 3.37-5.84 3.37-7.41 0-3.07-.56-4.61-1.68-4.61zm30.1-93.27c-2.32-1.16-5.62-1.74-9.88-1.74-.83 0-2.51.75-5.06 2.25-3.22 2.1-5.97 4.81-8.25 8.14-2.28 3.33-3.42 6.83-3.42 10.5 0 2.02 1.79 3.48 5.39 4.38 3.67.9 7 1.35 9.99 1.35 4.79 0 8.42-1.72 10.9-5.17 2.54-3.44 3.81-7.6 3.81-12.46 0-3.67-1.16-6.09-3.48-7.25zm76.03 94.73c-.52-1.64-1.31-2.47-2.36-2.47-.22-.07-.45 0-.67.22-.23.23-.45.51-.67.85-.23.33-.44.67-.62 1.01-.19.33-.32.58-.4.73-1.94 2.47-4.22 5.16-6.84 8.08-2.63 2.93-5.58 6.07-8.88 9.44-3.29 3.37-6.66 6.64-10.1 9.82-3.45 3.19-7.04 6.35-10.79 9.49-3.67 3.15-7.33 6-11 8.54-3.67 2.55-7.34 4.87-11.01 6.96-7.34 4.05-13.77 6.07-19.32 6.07-5.46 0-9.24-3.93-11.34-11.8-2.09-7.7-3.14-15.34-3.14-22.91 0-3.44.22-7.5.67-12.18.45-4.68 1.16-9.98 2.14-15.89.52-3.15 1.02-6.33 1.51-9.55.49-3.21.73-6.1.73-8.64 0-3.82-1.01-5.73-3.03-5.73-3.75 0-7.34 1.38-10.78 4.15-3.37 2.62-5.58 5.69-6.63 9.21-.52 1.8-1.01 4.16-1.46 7.08-.45 2.92-.9 6.4-1.35 10.44-.9 8.09-1.34 14.04-1.34 17.86 0 9.13.9 18 2.69 26.61 1.8 8.69 5.21 16.1 10.22 22.24 5.02 6.06 12.05 9.1 21.11 9.1 8.24 0 17.6-3.9 28.08-11.68 5.32-3.89 10.31-7.92 14.99-12.08 4.68-4.15 9.12-8.48 13.31-12.97 3.67-3.89 7.17-7.78 10.5-11.68 3.33-3.89 6.25-7.54 8.76-10.95 2.51-3.4 4.49-6.45 5.95-9.15 1.47-2.69 2.16-4.83 2.08-6.4 0-.97-.33-2.24-1.01-3.82zm177.72-5.61c-1.01-.45-1.74-.68-2.19-.68-1.05 0-2.43.83-4.16 2.47-1.72 1.65-3.57 3.63-5.55 5.95-1.99 2.32-4.01 4.74-6.07 7.25-2.06 2.51-3.95 4.59-5.67 6.23-4.42 4.27-8.7 8.2-12.86 11.79-4.16 3.6-8.18 6.72-12.07 9.38-3.9 2.66-7.6 4.74-11.12 6.23-3.52 1.5-6.89 2.25-10.11 2.25-4.19 0-7.41-1.01-9.66-3.03-2.24-2.02-3.97-4.66-5.16-7.92-1.2-3.26-2-6.94-2.42-11.06-.41-4.12-.84-8.28-1.29-12.47-.52-4.94-1.22-9.47-2.08-13.59-.86-4.11-2.07-7.65-3.65-10.61-1.57-2.96-3.65-5.28-6.23-6.96-2.58-1.69-5.82-2.53-9.71-2.53-3.67 0-7.02.62-10.05 1.85-3.04 1.24-5.9 2.92-8.6 5.06-2.69 2.13-5.29 4.62-7.8 7.47a176.16 176.16 0 00-7.58 9.21c-3.45 4.41-6.65 8.46-9.6 12.12-2.96 3.67-5.68 7.04-8.15 10.11-4.79 6.07-8.23 9.21-10.33 9.43-.45-1.42-.67-2.8-.67-4.15 0-1.95.17-4.14.5-6.57.34-2.43.75-4.92 1.24-7.47.48-2.54 1.01-5.05 1.57-7.52.56-2.47 1.07-4.72 1.52-6.74.6-2.47 1.19-4.66 1.79-6.57.6-1.91 1.17-3.69 1.69-5.34.52-1.64.94-3.25 1.24-4.82.29-1.58.44-3.26.44-5.06 0-2.92-.46-5.2-1.4-6.85-.94-1.64-2.01-2.47-3.2-2.47-.97 0-1.93.06-2.86.17-.94.11-1.84.37-2.7.79-.86.41-1.7 1.05-2.53 1.91-.82.86-1.61 2.04-2.36 3.53-1.57 3.22-2.93 6.72-4.09 10.5a153.4 153.4 0 00-3.09 11.68c-.9 4.01-1.65 8.01-2.25 12.02-.6 4.01-1.12 7.84-1.57 11.51-.9 8.09-1.35 14.11-1.35 18.08 0 14.98 3.29 23.17 9.88 24.59 1.95-.59 4.2-1.98 6.74-4.15 2.54-2.17 5.15-4.68 7.81-7.52 2.65-2.85 5.26-5.84 7.8-8.99 2.55-3.14 4.76-6.02 6.63-8.65 3.82-5.39 7.15-10.03 9.99-13.92 2.85-3.89 5.37-7.19 7.58-9.88 2.21-2.7 4.14-4.87 5.79-6.52 1.65-1.64 3.16-2.92 4.55-3.82 1.38-.89 2.71-1.49 3.98-1.79 1.28-.3 2.62-.45 4.05-.45 1.79 0 3.25.62 4.38 1.85 1.12 1.24 2.07 3 2.86 5.28.79 2.28 1.48 5.09 2.08 8.42.59 3.34 1.23 7.1 1.91 11.29.52 3.37 1.18 6.77 1.96 10.22.79 3.44 1.72 6.7 2.81 9.77 1.08 3.07 2.36 5.86 3.82 8.37 1.46 2.5 3.16 4.54 5.11 6.12 3.89 3.14 8.94 4.71 15.16 4.71 3.22 0 6.17-.34 8.87-1.01 2.7-.67 5.28-1.57 7.75-2.69a56.41 56.41 0 007.36-4.05c2.43-1.57 4.99-3.25 7.69-5.05 3.37-2.25 6.81-4.83 10.33-7.75 3.52-2.92 6.94-6.02 10.28-9.32 3.33-3.29 6.45-6.68 9.37-10.16 2.93-3.49 5.47-6.91 7.64-10.28.82-1.27 1.68-2.6 2.58-3.99.9-1.38 1.71-2.8 2.42-4.26s1.31-2.92 1.79-4.38c.49-1.46.74-2.9.74-4.33 0-1.04-.51-1.8-1.52-2.24zm146.84 1.46c-.45 0-1.16.43-2.14 1.29-.97.86-1.96 1.83-2.97 2.92-1.01 1.08-1.99 2.17-2.92 3.25-.94 1.09-1.59 1.86-1.97 2.31-4.72 4.94-9.51 9.6-14.37 13.98-4.87 4.38-9.76 8.24-14.66 11.57s-9.75 5.95-14.54 7.86c-4.8 1.91-9.48 2.86-14.04 2.86-2.77 0-5.26-.69-7.47-2.08a19.367 19.367 0 01-5.61-5.33c-1.54-2.17-2.72-4.58-3.54-7.24-.83-2.66-1.24-5.26-1.24-7.81 0-4.49.51-8.85 1.52-13.08s2.11-8.93 3.31-14.1c1.12-4.11 1.69-7.41 1.69-9.88 0-.9-.27-2.13-.79-3.71-.52-1.57-1.18-3.14-1.96-4.71-.79-1.58-1.63-3-2.53-4.27-.9-1.27-1.68-2.14-2.36-2.58-1.35-.83-2.85-1.45-4.49-1.86-1.65-.41-3.34-.71-5.06-.89-1.72-.19-3.46-.29-5.22-.29h-4.99c-3.15 0-6.74.87-10.79 2.59-4.04 1.72-8.16 3.98-12.35 6.79-4.19 2.81-8.24 5.99-12.13 9.55-3.89 3.55-7.26 7.13-10.11 10.72-2.69 3.45-5.44 7.38-8.25 11.79a122.65 122.65 0 00-7.64 13.99 96.4 96.4 0 00-5.56 15.1c-1.42 5.17-2.13 10.22-2.13 15.16 0 2.47.35 5.28 1.07 8.43.71 3.14 1.79 6.1 3.25 8.87 1.46 2.77 3.3 5.11 5.51 7.02 2.2 1.91 4.84 2.86 7.91 2.86 2.03 0 4.29-.32 6.8-.95 2.5-.64 5.01-1.46 7.52-2.47a77.78 77.78 0 007.19-3.32c2.28-1.19 4.25-2.32 5.9-3.37 2.92-1.94 5.76-4.08 8.53-6.4 2.77-2.32 5.45-4.72 8.03-7.19 2.58-2.47 5.07-4.92 7.47-7.35 2.39-2.43 4.68-4.77 6.85-7.02.75 3.14 2.02 6.03 3.82 8.65 1.79 2.62 3.93 4.87 6.4 6.74s5.11 3.31 7.92 4.32c2.81 1.01 5.59 1.51 8.36 1.51 5.99.08 11.55-.8 16.68-2.64 5.13-1.83 10.05-4.28 14.77-7.35 4.72-3.07 9.3-6.61 13.76-10.61 4.45-4.01 9-8.15 13.64-12.41 1.35-1.2 2.64-2.45 3.88-3.76 1.23-1.31 2.37-2.57 3.42-3.77 1.05-1.19 2-2.3 2.86-3.31.86-1.01 1.52-1.81 1.97-2.41.52-.68 1.03-1.6 1.52-2.76.48-1.16.93-2.37 1.34-3.65.42-1.27.73-2.52.96-3.76.22-1.23.33-2.3.33-3.2 0-3.07-.78-4.6-2.35-4.6zM889.9-52c-4.05 6.82-8.93 12.82-14.66 18.03-5.73 5.2-12.11 9.3-19.15 12.29-5.16 2.18-9.47 3.26-12.91 3.26-1.05 0-1.93-.41-2.64-1.23-.72-.83-1.28-1.82-1.69-2.98a19.86 19.86 0 01-.9-3.59c-.18-1.24-.28-2.23-.28-2.98 0-2.47.38-5.22 1.13-8.25.74-3.03 1.75-6.18 3.03-9.44 1.27-3.25 2.77-6.55 4.49-9.88 1.72-3.33 3.5-6.51 5.34-9.55 1.83-3.03 3.7-5.82 5.61-8.36 1.91-2.55 3.72-4.68 5.45-6.4 2.02-2.1 4.09-4.1 6.23-6.01 2.13-1.91 4.36-3.59 6.68-5.05 2.32-1.47 4.7-2.61 7.13-3.43a23.3 23.3 0 017.58-1.24c1.2 0 2.4-.01 3.6-.05 1.19-.04 2.2.54 3.03 1.74.82 1.2 1.31 2.73 1.46 4.6.15 1.88.22 3.45.22 4.72 0 11.98-2.92 23.25-8.75 33.8zm284.75-30.54c-1.01-.45-1.74-.68-2.19-.68-1.05 0-2.43.83-4.15 2.47-1.72 1.65-3.58 3.63-5.56 5.95-1.99 2.32-4.01 4.74-6.07 7.25-2.06 2.51-3.95 4.59-5.67 6.23-4.42 4.27-8.7 8.2-12.86 11.79-4.15 3.6-8.18 6.72-12.07 9.38-3.89 2.66-7.6 4.74-11.12 6.23-3.52 1.5-6.89 2.25-10.1 2.25-4.2 0-7.42-1.01-9.66-3.03-2.25-2.02-3.97-4.66-5.17-7.92-1.2-3.26-2-6.94-2.41-11.06-.41-4.12-.85-8.28-1.3-12.47-.52-4.94-1.21-9.47-2.07-13.59-.86-4.11-2.08-7.65-3.65-10.61-1.58-2.96-3.65-5.28-6.24-6.96-2.58-1.69-5.82-2.53-9.71-2.53-3.67 0-7.02.62-10.05 1.85a35.12 35.12 0 00-8.59 5.06c-2.7 2.13-5.3 4.62-7.81 7.47a176.16 176.16 0 00-7.58 9.21c-3.44 4.41-6.64 8.46-9.6 12.12-2.96 3.67-5.67 7.04-8.14 10.11-4.8 6.07-8.24 9.21-10.34 9.43-.44-1.42-.67-2.8-.67-4.15 0-1.95.17-4.14.51-6.57.33-2.43.74-4.92 1.23-7.47.49-2.54 1.01-5.05 1.58-7.52.56-2.47 1.06-4.72 1.51-6.74.6-2.47 1.2-4.66 1.8-6.57l1.68-5.34c.53-1.64.94-3.25 1.24-4.82.3-1.58.45-3.26.45-5.06 0-2.92-.47-5.2-1.41-6.85-.93-1.64-2-2.47-3.2-2.47-.97 0-1.93.06-2.86.17-.94.11-1.84.37-2.7.79-.86.41-1.7 1.05-2.52 1.91-.83.86-1.61 2.04-2.36 3.53-1.58 3.22-2.94 6.72-4.1 10.5-1.16 3.78-2.19 7.68-3.09 11.68-.9 4.01-1.65 8.01-2.25 12.02-.6 4.01-1.12 7.84-1.57 11.51-.9 8.09-1.35 14.11-1.35 18.08 0 14.98 3.3 23.17 9.89 24.59 1.94-.59 4.19-1.98 6.73-4.15 2.55-2.17 5.15-4.68 7.81-7.52 2.66-2.85 5.26-5.84 7.81-8.99 2.54-3.14 4.75-6.02 6.62-8.65 3.82-5.39 7.15-10.03 10-13.92 2.84-3.89 5.37-7.19 7.58-9.88 2.21-2.7 4.13-4.87 5.78-6.52 1.65-1.64 3.16-2.92 4.55-3.82 1.38-.89 2.71-1.49 3.99-1.79 1.27-.3 2.61-.45 4.04-.45 1.79 0 3.26.62 4.38 1.85 1.12 1.24 2.08 3 2.86 5.28.79 2.28 1.48 5.09 2.08 8.42.6 3.34 1.24 7.1 1.91 11.29.52 3.37 1.18 6.77 1.97 10.22.78 3.44 1.72 6.7 2.8 9.77 1.08 3.07 2.36 5.86 3.82 8.37 1.46 2.5 3.16 4.54 5.11 6.12 3.89 3.14 8.95 4.71 15.16 4.71 3.22 0 6.18-.34 8.87-1.01 2.7-.67 5.28-1.57 7.75-2.69 2.47-1.12 4.93-2.47 7.36-4.05 2.43-1.57 5-3.25 7.69-5.05 3.37-2.25 6.82-4.83 10.33-7.75 3.52-2.92 6.95-6.02 10.28-9.32 3.33-3.29 6.46-6.68 9.38-10.16 2.92-3.49 5.46-6.91 7.63-10.28.83-1.27 1.69-2.6 2.59-3.99.9-1.38 1.7-2.8 2.41-4.26.71-1.46 1.31-2.92 1.8-4.38.48-1.46.73-2.9.73-4.33 0-1.04-.51-1.8-1.52-2.24zm159.92 1.4c-.26-1.23-.8-1.85-1.63-1.85-.37 0-.78.22-1.23.67-6.22 6.67-13.33 13.67-21.34 21-8.01 7.34-16.32 13.85-24.93 19.54-8.69 5.62-16.1 8.43-22.24 8.43-1.72 0-3.03-2.81-3.93-8.43-.9-5.61-1.46-11.41-1.68-17.4-.23-5.92-.34-11.05-.34-15.39 0-5.47.3-10.85.9-16.17.6-5.32 1.39-11.01 2.36-17.07.07-.52.3-1.85.67-3.99.38-2.13.79-4.45 1.24-6.96.45-2.51.86-4.89 1.23-7.13.38-2.25.6-3.74.68-4.49 1.19-6.59 2.3-12.26 3.31-17.02 1.01-4.75 1.82-8.74 2.42-11.96.59-3.22 1.06-5.84 1.4-7.86.33-2.02.5-3.48.5-4.38 0-1.65-1.16-2.92-3.48-3.82-2.17-.97-4.38-1.46-6.62-1.46-4.5 0-7.64 1.54-9.44 4.61-.75 1.19-1.35 3.8-1.79 7.8-.45 4.01-.9 8.93-1.35 14.77-.23 2.84-.41 5.32-.56 7.41-.16 2.1-.3 3.82-.45 5.17-.45 5.09-.96 9.86-1.52 14.31-.56 4.46-1.18 8.71-1.85 12.75-.68 4.04-1.46 7.96-2.36 11.74-.9 3.78-1.91 7.5-3.03 11.17 0-3.07-.64-7.33-1.91-12.8-1.28-5.17-3.15-9.7-5.62-13.59-2.47-3.89-5.46-5.84-8.98-5.84-10.11 0-17.86 1.46-23.25 4.38-4.34 2.25-8.98 5.99-13.92 11.23-4.87 5.24-9.21 10.48-13.03 15.72-5.84 8.09-10.8 16.33-14.88 24.71-4.08 8.39-7.69 17.37-10.84 26.95-1.12 3.3-1.68 8.31-1.68 15.05 0 5.02 1.16 9.85 3.48 14.49 2.32 4.72 5.69 7.08 10.11 7.08 16.02 0 31.52-6.82 46.49-20.44 14.9-13.55 27.03-29.05 36.39-46.5.74 7.79 1.68 14.83 2.8 21.11a73.308 73.308 0 005.73 18.09c2.77 5.76 6.52 9.73 11.23 11.9 2.32 1.05 4.23 1.57 5.73 1.57 3.82 0 8.91-2.17 15.27-6.51 3.22-2.17 6.52-4.61 9.88-7.3 3.37-2.7 6.85-5.73 10.45-9.1 3.59-3.37 7-6.68 10.22-9.94 3.22-3.25 6.25-6.57 9.1-9.94 5.91-6.81 9.69-11.86 11.34-15.16.9-1.79 1.35-3.63 1.35-5.5 0-1.2-.14-2.41-.4-3.65zm-108.26 18.36c-1.39 2.32-2.9 4.42-4.55 6.29-1.64 1.87-3.89 4.34-6.73 7.41-2.85 3.07-6.41 6.85-10.67 11.35-4.12 4.12-9.96 8.75-17.52 13.92-7.34 4.87-13.1 7.3-17.3 7.3-4.71 0-7.07-3.48-7.07-10.44 0-5.47 2.2-12.95 6.62-22.46 1.27-2.7 2.83-5.77 4.66-9.21 1.84-3.45 4.06-7.23 6.69-11.35 2.39-3.81 5.03-7.67 7.91-11.56 2.88-3.89 6.05-7.98 9.49-12.24 6.81-8.31 12.21-12.47 16.18-12.47 1.34 0 2.71.51 4.09 1.52 1.39 1.01 2.64 2.24 3.77 3.7 1.12 1.46 2.04 3.04 2.75 4.72.71 1.68 1.07 3.2 1.07 4.55 0 1.57-.23 3.81-.68 6.74-.45 2.92-.67 5.12-.67 6.62 0 1.87.5 3.56 1.51 5.05 1.01 1.5 2.49 2.48 4.44 2.93-1.27 2.77-2.6 5.31-3.99 7.63zm257.79-18.3c-.45 0-1.16.43-2.13 1.29-.98.86-1.97 1.83-2.98 2.92-1.01 1.08-1.98 2.17-2.92 3.25-.94 1.09-1.59 1.86-1.97 2.31-4.71 4.94-9.5 9.6-14.37 13.98-4.87 4.38-9.75 8.24-14.66 11.57-4.9 3.33-9.75 5.95-14.54 7.86-4.79 1.91-9.47 2.86-14.04 2.86-2.77 0-5.26-.69-7.47-2.08a19.367 19.367 0 01-5.61-5.33c-1.54-2.17-2.71-4.58-3.54-7.24-.82-2.66-1.23-5.26-1.23-7.81 0-4.49.5-8.85 1.51-13.08s2.12-8.93 3.31-14.1c1.13-4.11 1.69-7.41 1.69-9.88 0-.9-.26-2.13-.79-3.71a34.84 34.84 0 00-1.96-4.71c-.79-1.58-1.63-3-2.53-4.27-.9-1.27-1.68-2.14-2.36-2.58-1.34-.83-2.84-1.45-4.49-1.86a36.77 36.77 0 00-5.05-.89c-1.73-.19-3.47-.29-5.22-.29h-5c-3.15 0-6.74.87-10.78 2.59-4.05 1.72-8.16 3.98-12.36 6.79-4.19 2.81-8.23 5.99-12.13 9.55-3.89 3.55-7.26 7.13-10.1 10.72-2.7 3.45-5.45 7.38-8.26 11.79a121.06 121.06 0 00-7.63 13.99c-2.29 4.9-4.14 9.94-5.56 15.1-1.43 5.17-2.14 10.22-2.14 15.16 0 2.47.36 5.28 1.07 8.43.71 3.14 1.8 6.1 3.26 8.87 1.46 2.77 3.29 5.11 5.5 7.02 2.21 1.91 4.85 2.86 7.92 2.86 2.02 0 4.28-.32 6.79-.95 2.51-.64 5.02-1.46 7.53-2.47 2.5-1.01 4.9-2.12 7.18-3.32 2.29-1.19 4.25-2.32 5.9-3.37 2.92-1.94 5.76-4.08 8.53-6.4 2.77-2.32 5.45-4.72 8.03-7.19 2.59-2.47 5.07-4.92 7.47-7.35 2.4-2.43 4.68-4.77 6.85-7.02.75 3.14 2.02 6.03 3.82 8.65 1.8 2.62 3.93 4.87 6.4 6.74s5.11 3.31 7.92 4.32c2.81 1.01 5.59 1.51 8.37 1.51 5.99.08 11.54-.8 16.67-2.64 5.13-1.83 10.05-4.28 14.77-7.35 4.72-3.07 9.31-6.61 13.76-10.61 4.45-4.01 9-8.15 13.64-12.41 1.35-1.2 2.64-2.45 3.88-3.76 1.23-1.31 2.38-2.57 3.42-3.77 1.05-1.19 2.01-2.3 2.87-3.31.86-1.01 1.52-1.81 1.96-2.41.53-.68 1.03-1.6 1.52-2.76.49-1.16.94-2.37 1.35-3.65.41-1.27.73-2.52.95-3.76.23-1.23.34-2.3.34-3.2 0-3.07-.79-4.6-2.36-4.6zM1377.75-52c-4.05 6.82-8.93 12.82-14.66 18.03-5.72 5.2-12.11 9.3-19.14 12.29-5.17 2.18-9.48 3.26-12.92 3.26-1.05 0-1.93-.41-2.64-1.23-.71-.83-1.27-1.82-1.69-2.98-.41-1.16-.71-2.36-.89-3.59-.19-1.24-.28-2.23-.28-2.98 0-2.47.37-5.22 1.12-8.25.75-3.03 1.76-6.18 3.03-9.44 1.27-3.25 2.77-6.55 4.49-9.88 1.72-3.33 3.5-6.51 5.34-9.55 1.83-3.03 3.7-5.82 5.61-8.36 1.91-2.55 3.73-4.68 5.45-6.4 2.02-2.1 4.1-4.1 6.23-6.01 2.14-1.91 4.37-3.59 6.69-5.05 2.32-1.47 4.69-2.61 7.13-3.43 2.43-.83 4.95-1.24 7.58-1.24 1.19 0 2.39-.01 3.59-.05 1.2-.04 2.21.54 3.03 1.74.83 1.2 1.31 2.73 1.46 4.6.15 1.88.23 3.45.23 4.72 0 11.98-2.92 23.25-8.76 33.8zm284.75-30.54c-1.01-.45-1.74-.68-2.19-.68-1.04 0-2.43.83-4.15 2.47-1.72 1.65-3.58 3.63-5.56 5.95-1.98 2.32-4 4.74-6.06 7.25-2.06 2.51-3.95 4.59-5.68 6.23-4.41 4.27-8.7 8.2-12.85 11.79-4.16 3.6-8.19 6.72-12.08 9.38-3.89 2.66-7.6 4.74-11.12 6.23-3.51 1.5-6.88 2.25-10.1 2.25-4.19 0-7.41-1.01-9.66-3.03-2.25-2.02-3.97-4.66-5.17-7.92-1.2-3.26-2-6.94-2.41-11.06-.41-4.12-.84-8.28-1.29-12.47-.53-4.94-1.22-9.47-2.08-13.59-.86-4.11-2.08-7.65-3.65-10.61-1.57-2.96-3.65-5.28-6.23-6.96-2.59-1.69-5.83-2.53-9.72-2.53-3.67 0-7.02.62-10.05 1.85-3.03 1.24-5.89 2.92-8.59 5.06-2.69 2.13-5.3 4.62-7.81 7.47-2.5 2.84-5.03 5.91-7.58 9.21-3.44 4.41-6.64 8.46-9.6 12.12-2.96 3.67-5.67 7.04-8.14 10.11-4.79 6.07-8.24 9.21-10.33 9.43-.45-1.42-.68-2.8-.68-4.15 0-1.95.17-4.14.51-6.57.34-2.43.75-4.92 1.23-7.47.49-2.54 1.02-5.05 1.58-7.52.56-2.47 1.07-4.72 1.51-6.74.6-2.47 1.2-4.66 1.8-6.57.6-1.91 1.16-3.69 1.69-5.34.52-1.64.93-3.25 1.23-4.82.3-1.58.45-3.26.45-5.06 0-2.92-.47-5.2-1.4-6.85-.94-1.64-2.01-2.47-3.21-2.47-.97 0-1.92.06-2.86.17-.93.11-1.83.37-2.69.79-.87.41-1.71 1.05-2.53 1.91-.83.86-1.61 2.04-2.36 3.53-1.57 3.22-2.94 6.72-4.1 10.5-1.16 3.78-2.19 7.68-3.09 11.68-.9 4.01-1.65 8.01-2.24 12.02-.6 4.01-1.13 7.84-1.57 11.51-.9 8.09-1.35 14.11-1.35 18.08 0 14.98 3.29 23.17 9.88 24.59 1.95-.59 4.19-1.98 6.74-4.15 2.54-2.17 5.14-4.68 7.8-7.52 2.66-2.85 5.26-5.84 7.81-8.99 2.54-3.14 4.75-6.02 6.62-8.65 3.82-5.39 7.15-10.03 10-13.92 2.84-3.89 5.37-7.19 7.58-9.88 2.21-2.7 4.14-4.87 5.78-6.52 1.65-1.64 3.16-2.92 4.55-3.82 1.39-.89 2.72-1.49 3.99-1.79 1.27-.3 2.62-.45 4.04-.45 1.8 0 3.26.62 4.38 1.85 1.12 1.24 2.08 3 2.87 5.28.78 2.28 1.47 5.09 2.07 8.42.6 3.34 1.24 7.1 1.91 11.29.52 3.37 1.18 6.77 1.97 10.22.79 3.44 1.72 6.7 2.8 9.77 1.09 3.07 2.36 5.86 3.82 8.37 1.47 2.5 3.16 4.54 5.11 6.12 3.89 3.14 8.95 4.71 15.16 4.71 3.22 0 6.18-.34 8.88-1.01 2.69-.67 5.28-1.57 7.75-2.69 2.47-1.12 4.92-2.47 7.35-4.05 2.43-1.57 5-3.25 7.7-5.05 3.37-2.25 6.81-4.83 10.33-7.75 3.52-2.92 6.94-6.02 10.27-9.32 3.33-3.29 6.46-6.68 9.38-10.16 2.92-3.49 5.46-6.91 7.64-10.28.82-1.27 1.68-2.6 2.58-3.99.9-1.38 1.7-2.8 2.41-4.26a35.17 35.17 0 001.8-4.38c.49-1.46.73-2.9.73-4.33 0-1.04-.51-1.8-1.52-2.24zM729.47 124.6c-.26-.9-.62-1.79-1.06-2.69-.45-.9-1-1.72-1.63-2.47-.64-.75-1.37-1.24-2.19-1.46-1.65-.53-3.41-.94-5.28-1.24a77.9 77.9 0 00-9.72-.95c-1.31-.04-2.23-.06-2.75-.06-4.64 0-9.51.36-14.6 1.07-5.09.71-10.22 1.61-15.38 2.69-5.17 1.09-10.28 2.23-15.33 3.43-5.05 1.2-9.83 2.24-14.32 3.14-2.18.45-4.96.94-8.37 1.46-3.41.53-6.92 1.05-10.55 1.57-3.64.53-7.18 1.02-10.62 1.46-3.44.45-6.32.83-8.64 1.13-3.3.45-7.06.82-11.29 1.12-4.23.3-8.58.6-13.03.9-4.45.3-8.84.67-13.14 1.12-4.3.45-8.14 1.05-11.51 1.8-1.57.37-2.75 1.07-3.54 2.08a8.211 8.211 0 00-1.57 3.37 15.19 15.19 0 00-.34 3.65c.04 1.19.1 2.17.17 2.91 1.13 1.13 2.23 1.99 3.31 2.59a11.9 11.9 0 003.26 1.24c1.09.22 2.15.33 3.2.33h3.15c4.49 0 9.37-.26 14.65-.79 5.28-.52 10.47-1.1 15.56-1.74 5.09-.63 9.88-1.21 14.37-1.74 4.49-.52 8.16-.78 11.01-.78.07 0 .39-.04.95-.11.56-.08 1.18-.04 1.85.11.68.15 1.28.49 1.8 1.01.53.52.79 1.38.79 2.58 0 .08-.23 1.84-.68 5.28-.45 3.44-1.01 7.82-1.68 13.14-.67 5.32-1.4 11.17-2.19 17.58-.79 6.4-1.52 12.61-2.19 18.64-.67 6.03-1.24 11.47-1.69 16.34-.44 4.87-.67 8.42-.67 10.67 0 .44-.02 1.42-.05 2.92-.04 1.5-.06 3.31-.06 5.44 0 2.14.03 4.5.11 7.08.07 2.58.23 5.18.45 7.8.23 2.63.52 5.15.9 7.58.37 2.44.86 4.59 1.46 6.46.45 1.42 1.08 2.75 1.91 3.99.82 1.23 1.74 2.3 2.75 3.2 1.01.9 2.04 1.61 3.09 2.13 1.04.52 2.02.79 2.92.79 1.35 0 2.6-.39 3.76-1.18 1.16-.79 2.13-1.8 2.92-3.03.79-1.24 1.41-2.62 1.85-4.16.45-1.53.68-3.05.68-4.54 0-.3-.17-1.47-.51-3.49-.33-2.02-.71-4.32-1.12-6.9-.41-2.59-.79-5.13-1.13-7.64-.33-2.51-.5-4.4-.5-5.67 0-7.41.28-14.88.84-22.41.56-7.52 1.24-15.12 2.02-22.79.79-7.68 1.65-15.41 2.59-23.19.93-7.79 1.77-15.65 2.52-23.59 0-.67.13-1.46.4-2.36.26-.9.58-1.77.95-2.64.38-.86.82-1.64 1.35-2.36.52-.71 1.08-1.25 1.68-1.62 1.28-.75 3.63-1.59 7.08-2.53 3.44-.94 7.28-1.82 11.51-2.64 4.23-.82 8.52-1.52 12.86-2.08s8.08-.84 11.23-.84c2.99 0 5.63.02 7.92.06 2.28.03 4.45.09 6.51.16 2.06.08 4.12.14 6.18.17 2.06.04 4.36.06 6.9.06.98 0 1.97-.02 2.98-.06 1.01-.03 1.91-.28 2.7-.73.78-.45 1.42-1.25 1.9-2.41.49-1.16.74-2.86.74-5.11 0-.6-.14-1.35-.4-2.25zm107.71 57c-1.76-1.31-3.88-2.38-6.35-3.2-2.47-.83-5.05-1.39-7.75-1.69-2.69-.3-5.01-.41-6.96-.33-4.04.22-9.21 1.83-15.5 4.83-5.54 2.39-11.3 6.34-17.29 11.84-5.99 5.51-11.61 12.6-16.85 21.28-1.35 2.25-2.47 4.16-3.37 5.73-.89 1.57-1.72 3.02-2.47 4.33-.75 1.31-1.44 2.56-2.07 3.76-.64 1.2-1.33 2.56-2.08 4.1-.75 1.53-1.59 3.31-2.53 5.33-.94 2.02-2.04 4.46-3.31 7.3.6-4.79 1.08-8.82 1.46-12.07.37-3.26.75-6.31 1.12-9.15.38-2.85.84-5.79 1.4-8.82.57-3.03 1.37-6.68 2.42-10.95.52-2.17 1.05-4.46 1.57-6.85.52-2.4.97-4.77 1.35-7.13.37-2.36.63-4.64.78-6.85.15-2.21.19-4.25.12-6.12-.08-.6-.36-1.28-.84-2.03-.49-.74-1.09-1.46-1.8-2.13-.72-.67-1.5-1.22-2.36-1.63-.86-.41-1.67-.61-2.42-.61-2.84.15-4.99 1.08-6.45 2.8-1.46 1.73-2.61 4.35-3.43 7.87-.82 3.07-1.61 6.94-2.36 11.62-.75 4.68-1.46 9.6-2.13 14.77-.67 5.16-1.27 10.29-1.8 15.38-.52 5.09-.97 9.59-1.34 13.48-.3 3.14-.58 5.97-.85 8.48-.26 2.51-.47 4.9-.61 7.19a132.4 132.4 0 00-.29 7.07c-.03 2.43.06 5.15.29 8.14.67 11.01 3.59 16.36 8.76 16.06.44 0 1.3-.15 2.58-.45 1.27-.3 2.6-.67 3.98-1.12 1.39-.45 2.64-.96 3.77-1.52 1.12-.56 1.75-1.14 1.91-1.74.59-1.79 1.03-3.5 1.29-5.11.26-1.61.69-3.46 1.29-5.56 1.12-3.81 2.3-7.44 3.54-10.89 1.23-3.44 2.49-6.78 3.76-10 6.81-15.64 14.9-28.14 24.26-37.51 9.51-9.58 21.41-14.82 35.71-15.72.45 0 1.2.02 2.25.06 1.04.04 2.15.09 3.31.17 1.16.07 2.26.13 3.31.16 1.05.04 1.8.06 2.25.06.67 0 1.21-.34 1.63-1.01.41-.67.76-1.44 1.06-2.3.3-.86.49-1.72.56-2.58.08-.87.12-1.52.12-1.97 0-1.87-.88-3.46-2.64-4.77zm57.55-76.26c-2.32-1.16-5.62-1.74-9.88-1.74-.83 0-2.51.75-5.06 2.25-3.22 2.1-5.97 4.81-8.25 8.14-2.28 3.33-3.43 6.83-3.43 10.5 0 2.02 1.8 3.48 5.4 4.38 3.66.9 6.99 1.35 9.99 1.35 4.79 0 8.42-1.72 10.89-5.17 2.55-3.44 3.82-7.6 3.82-12.46 0-3.67-1.16-6.09-3.48-7.25zm76.03 94.73c-.52-1.64-1.31-2.47-2.36-2.47-.22-.07-.45 0-.67.22-.23.23-.45.51-.67.85-.23.33-.44.67-.62 1.01-.19.33-.32.58-.4.73-1.94 2.47-4.23 5.16-6.85 8.08-2.62 2.93-5.58 6.07-8.87 9.44-3.3 3.37-6.66 6.64-10.11 9.82a291.65 291.65 0 01-10.78 9.49c-3.67 3.15-7.33 6-11 8.54-3.67 2.55-7.34 4.87-11.01 6.96-7.34 4.05-13.78 6.07-19.32 6.07-5.46 0-9.24-3.93-11.34-11.8-2.1-7.7-3.14-15.34-3.14-22.91 0-3.44.22-7.5.67-12.18.45-4.68 1.16-9.98 2.13-15.89.53-3.15 1.03-6.33 1.52-9.55.49-3.21.73-6.1.73-8.64 0-3.82-1.01-5.73-3.03-5.73-3.75 0-7.34 1.38-10.78 4.15-3.37 2.62-5.58 5.69-6.63 9.21-.52 1.8-1.01 4.16-1.46 7.08-.45 2.92-.9 6.4-1.35 10.44-.9 8.09-1.34 14.04-1.34 17.86 0 9.13.89 18 2.69 26.61 1.8 8.69 5.21 16.1 10.22 22.24 5.02 6.06 12.05 9.1 21.11 9.1 8.24 0 17.6-3.9 28.08-11.68a204.1 204.1 0 0014.99-12.08c4.68-4.15 9.12-8.48 13.31-12.97 3.67-3.89 7.17-7.78 10.5-11.68 3.33-3.89 6.25-7.54 8.76-10.95 2.51-3.4 4.49-6.45 5.95-9.15 1.46-2.69 2.15-4.83 2.08-6.4 0-.97-.34-2.24-1.01-3.82zm95.68 5.62c-1.05 0-2.19.6-3.43 1.79-1.23 1.2-2.34 2.36-3.31 3.48-1.2 1.43-2.69 3.17-4.49 5.23-1.8 2.06-3.9 4.51-6.29 7.35-2.99 3.45-6.29 7.02-9.88 10.73-3.6 3.7-7.4 7.09-11.4 10.16-4.01 3.07-8.18 5.6-12.52 7.58-4.35 1.99-8.76 2.98-13.26 2.98-4.12 0-7.61-.83-10.5-2.47-2.88-1.65-5.24-3.97-7.07-6.97-1.84-2.99-3.17-6.6-3.99-10.83-.82-4.23-1.23-8.93-1.23-14.1 0-4.79.26-9.95.78-15.49.53-5.55 1.22-11.16 2.08-16.85.86-5.69 1.8-11.27 2.81-16.73 1.01-5.47 1.96-10.56 2.86-15.28.52-2.39 1.39-6.51 2.58-12.35 1.2-5.84 2.74-13.48 4.61-22.91.37-2.39.8-4.66 1.29-6.79.49-2.14.96-4.37 1.4-6.69-1.72-3.37-4.37-5.05-7.97-5.05-1.72 0-3.3.37-4.72 1.12-1.42.75-2.67 1.76-3.76 3.03a17.574 17.574 0 00-2.69 4.38c-.72 1.65-1.22 3.37-1.52 5.17-.15 1.05-.35 2.38-.62 3.99-.26 1.61-.54 3.46-.84 5.56-.45 3.07-.82 5.63-1.12 7.69-.3 2.06-.64 4.1-1.01 6.12-.38 2.02-.81 4.23-1.29 6.62-.49 2.4-1.07 5.47-1.74 9.21-1.05 5.47-2.08 11.14-3.09 17.02-1.01 5.88-1.93 11.81-2.75 17.8-.83 5.99-1.5 11.96-2.03 17.91-.52 5.95-.78 11.66-.78 17.13 0 8.01.95 14.95 2.86 20.83 1.91 5.88 4.53 10.76 7.86 14.66 3.33 3.89 7.25 6.77 11.74 8.64 4.49 1.88 9.32 2.81 14.48 2.81 3.9 0 7.85-.65 11.85-1.96 4.01-1.31 7.9-3.05 11.68-5.23a87.54 87.54 0 0010.78-7.3c3.41-2.69 6.54-5.46 9.38-8.31a134.6 134.6 0 005.73-6.12c1.95-2.21 3.82-4.38 5.61-6.51 1.8-2.14 3.43-4.19 4.89-6.18 1.46-1.98 2.6-3.68 3.42-5.11 4.27-7.48 6.41-12.99 6.41-16.51 0-2.17-.61-3.25-1.8-3.25zm148.91-25.72c-3.37 1.5-6.52 2.77-9.44 3.82a63.047 63.047 0 01-8.82 2.47c-2.95.6-6 1.03-9.15 1.29-3.14.26-6.59.39-10.33.39-3.75 0-7.9-.47-12.46-1.4-4.57-.94-8.93-2.02-13.09-3.26-4.16-1.23-7.75-2.51-10.78-3.82-3.03-1.3-4.88-2.3-5.56-2.97-2.1-2.32-3.95-4.42-5.56-6.29-1.61-1.87-3.18-3.43-4.71-4.66a18.77 18.77 0 00-4.89-2.87c-1.72-.67-3.78-1.01-6.18-1.01-2.92 0-5.99.66-9.21 1.97-3.22 1.31-6.4 3.01-9.54 5.11-3.15 2.1-6.16 4.47-9.04 7.13-2.89 2.66-5.45 5.37-7.69 8.14-4.05 4.94-7.87 9.9-11.46 14.88-3.6 4.98-6.76 10.07-9.49 15.28-2.74 5.2-4.9 10.59-6.51 16.17-1.61 5.58-2.42 11.4-2.42 17.46 0 2.47.66 5.24 1.97 8.31a36.52 36.52 0 005.22 8.65c2.17 2.7 4.64 4.98 7.41 6.85 2.77 1.87 5.62 2.81 8.54 2.81 4.19 0 8.34-.24 12.46-.73 4.12-.49 8.09-1.24 11.91-2.25 3.82-1.01 7.46-2.32 10.95-3.93 3.48-1.61 6.68-3.5 9.6-5.67 5.16-3.82 10.07-8.61 14.71-14.38a81.25 81.25 0 0011.34-18.75c3-6.66 4.49-12.95 4.49-18.87 0-3.29-.24-6.14-.73-8.53-.48-2.4-1.59-4.91-3.31-7.53 5.32 3.37 10.86 5.79 16.62 7.25 5.77 1.46 11.5 2.19 17.19 2.19 7.11 0 13.08-.66 17.91-1.97s8.55-2.82 11.17-4.55c1.12-.67 2.23-1.55 3.32-2.64 1.08-1.08 2.07-2.24 2.97-3.48.9-1.23 1.63-2.5 2.19-3.82.56-1.3.84-2.6.84-3.87 0-.82-.15-1.8-.44-2.92zm-83.62 32.79c-.11 1.35-.31 2.85-.61 4.49-.3 1.65-.72 3.3-1.24 4.95-.52 1.64-1.16 3.03-1.91 4.15-1.12 1.72-2.32 3.47-3.59 5.22a89.19 89.19 0 01-4.05 5.17 91.755 91.755 0 01-4.32 4.77c-1.46 1.5-2.94 2.81-4.43 3.93-3.07 2.4-5.77 4.34-8.09 5.84-2.32 1.5-4.62 2.68-6.91 3.54-2.28.86-4.77 1.46-7.47 1.8-2.69.33-5.95.5-9.77.5-1.34 0-2.71-.45-4.09-1.35-1.39-.9-2.63-2-3.71-3.31-1.09-1.31-1.97-2.66-2.64-4.04-.67-1.39-1.01-2.57-1.01-3.54 0-1.57.09-3.35.28-5.33.18-1.99.47-3.97.84-5.96.38-1.98.83-3.91 1.35-5.78.52-1.87 1.12-3.48 1.8-4.83 1.57-3.22 3.14-6.12 4.71-8.7 1.58-2.59 3.21-5.06 4.89-7.41 1.68-2.36 3.48-4.74 5.39-7.14 1.91-2.39 3.98-5.05 6.23-7.97 1.12-1.42 2.27-2.79 3.43-4.1 1.16-1.31 2.3-2.45 3.42-3.42 1.12-.98 2.21-1.74 3.26-2.31 1.05-.56 2.02-.84 2.92-.84 1.19 0 2.92.75 5.17 2.25 2.24 1.5 5.08 2.92 8.53 4.27 2.25-.3 4.13.29 5.67 1.79s2.77 3.43 3.71 5.79c.93 2.35 1.59 4.86 1.96 7.52.38 2.66.52 5.04.45 7.13 0 .6-.05 1.57-.17 2.92zm236.57-14.6c-.08-.82-.25-1.61-.51-2.36-.26-.74-.61-1.38-1.06-1.91-.45-.52-1.02-.78-1.69-.78-.3 0-1.27.99-2.92 2.97-1.64 1.99-3.78 4.61-6.4 7.87a953.44 953.44 0 01-9.1 11.11c-3.44 4.16-7.11 8.39-11 12.69-3.9 4.31-7.94 8.54-12.13 12.69-4.19 4.16-8.35 7.87-12.47 11.12-4.12 3.26-8.12 5.88-12.01 7.86-3.9 1.99-7.49 2.98-10.78 2.98-2.93 0-6.18-.86-9.78-2.58-3.59-1.72-7.82-4.98-12.69-9.77-2.69-2.62-5.18-5.15-7.46-7.58a389.23 389.23 0 00-6.69-6.97c-2.17-2.2-4.3-4.24-6.4-6.12-2.1-1.87-4.34-3.59-6.74-5.16 2.1-2.55 4.19-5.02 6.29-7.42 2.1-2.39 4.31-4.84 6.63-7.35 2.32-2.51 4.84-5.11 7.58-7.81 2.73-2.69 5.78-5.61 9.15-8.76 2.25-2.09 4.83-4.34 7.75-6.73 2.92-2.4 5.67-4.78 8.25-7.14 2.59-2.35 4.78-4.6 6.58-6.73 1.79-2.14 2.69-3.99 2.69-5.56 0-.98-.21-2.08-.62-3.32-.41-1.23-1.05-2.39-1.91-3.48-.86-1.08-1.96-1.92-3.31-2.52-1.35-.6-2.92-.75-4.72-.45-3.14.6-6.27 2.13-9.37 4.6-3.11 2.47-6.07 5.3-8.88 8.48-2.8 3.18-5.43 6.44-7.86 9.77-2.43 3.33-4.54 6.16-6.34 8.48a611.75 611.75 0 01-9.16 11.23c-3.18 3.82-6.4 7.62-9.65 11.4-3.26 3.78-6.5 7.5-9.72 11.17-3.22 3.67-6.32 7.19-9.32 10.56.6-3.67 1.31-8.68 2.13-15.05.83-6.36 1.8-14.07 2.93-23.13.37-3 1.01-7.3 1.9-12.92.9-5.61 2.18-12.95 3.82-22.01.08-.52.32-1.81.73-3.88.41-2.05.92-4.52 1.52-7.41.6-2.88 1.23-6.01 1.91-9.38.67-3.37 1.29-6.62 1.85-9.77.56-3.14 1.03-6 1.41-8.59.37-2.58.56-4.51.56-5.78 0-.82-.13-1.8-.4-2.92-.26-1.12-.76-2.23-1.51-3.31-.75-1.09-1.82-2.01-3.2-2.75-1.39-.75-3.2-1.13-5.45-1.13-1.72 0-3.26.43-4.61 1.29-1.34.87-2.5 1.95-3.48 3.26-.97 1.31-1.7 2.75-2.19 4.32-.48 1.58-.73 3.11-.73 4.61-.44 8.53-1.01 17.8-1.68 27.79-.68 10-1.61 19.83-2.81 29.49-.75 6.21-1.46 12.22-2.13 18.02-.68 5.8-1.37 11.55-2.08 17.24-.71 5.69-1.44 11.38-2.19 17.07-.75 5.69-1.57 11.53-2.47 17.52-.3 2.17-.66 4.45-1.07 6.85-.41 2.39-.82 4.81-1.23 7.24a116.8 116.8 0 00-1.01 7.25c-.27 2.39-.4 4.64-.4 6.73 0 2.93.36 5.04 1.07 6.35.71 1.31 2.41 1.96 5.11 1.96 2.17 0 3.99-.24 5.45-.72 1.46-.49 2.62-1.34 3.48-2.53.86-1.2 1.48-2.81 1.85-4.83.38-2.02.56-4.53.56-7.53 0-1.72.06-3.44.17-5.16.11-1.72.36-3.22.73-4.49.38-1.5 1.2-3.2 2.47-5.11 1.27-1.91 2.88-4.03 4.83-6.35.45-.52 1.1-1.25 1.97-2.19.86-.94 1.74-1.87 2.64-2.81.9-.93 1.7-1.77 2.41-2.52.71-.75 1.14-1.2 1.29-1.35 2.02 1.12 4.08 2.71 6.18 4.77 2.09 2.06 4.25 4.38 6.46 6.96 2.2 2.59 4.52 5.36 6.96 8.32 2.43 2.95 5 5.89 7.69 8.81 2.02 2.18 4.14 4.23 6.35 6.18 2.21 1.95 4.53 3.65 6.96 5.11a33.79 33.79 0 007.75 3.42c2.73.83 5.63 1.24 8.7 1.24 4.72 0 9.55-1.11 14.49-3.31 4.94-2.21 9.85-5.15 14.71-8.82 4.87-3.67 9.6-7.84 14.21-12.52 4.6-4.68 8.96-9.47 13.08-14.38 4.12-4.9 7.9-9.75 11.35-14.54 3.44-4.79 6.41-9.12 8.92-12.97 2.51-3.86 4.46-7.06 5.84-9.6 1.39-2.55 2.08-4.01 2.08-4.38 0-.6-.04-1.31-.11-2.14zm25.83-92.82c-2.32-1.16-5.62-1.74-9.88-1.74-.83 0-2.51.75-5.06 2.25-3.22 2.1-5.97 4.81-8.25 8.14-2.29 3.33-3.43 6.83-3.43 10.5 0 2.02 1.8 3.48 5.39 4.38 3.67.9 7 1.35 10 1.35 4.79 0 8.42-1.72 10.89-5.17 2.55-3.44 3.82-7.6 3.82-12.46 0-3.67-1.16-6.09-3.48-7.25zm76.03 94.73c-.52-1.64-1.31-2.47-2.36-2.47-.23-.07-.45 0-.67.22-.23.23-.45.51-.68.85-.22.33-.43.67-.61 1.01-.19.33-.32.58-.4.73-1.95 2.47-4.23 5.16-6.85 8.08-2.62 2.93-5.58 6.07-8.87 9.44-3.3 3.37-6.66 6.64-10.11 9.82a291.65 291.65 0 01-10.78 9.49c-3.67 3.15-7.34 6-11 8.54-3.67 2.55-7.34 4.87-11.01 6.96-7.34 4.05-13.78 6.07-19.32 6.07-5.46 0-9.24-3.93-11.34-11.8-2.1-7.7-3.14-15.34-3.14-22.91 0-3.44.22-7.5.67-12.18.45-4.68 1.16-9.98 2.13-15.89.53-3.15 1.03-6.33 1.52-9.55.48-3.21.73-6.1.73-8.64 0-3.82-1.01-5.73-3.03-5.73-3.75 0-7.34 1.38-10.78 4.15-3.37 2.62-5.58 5.69-6.63 9.21-.52 1.8-1.01 4.16-1.46 7.08-.45 2.92-.9 6.4-1.35 10.44-.9 8.09-1.35 14.04-1.35 17.86 0 9.13.9 18 2.7 26.61 1.8 8.69 5.2 16.1 10.22 22.24 5.01 6.06 12.05 9.1 21.11 9.1 8.24 0 17.6-3.9 28.08-11.68a204.1 204.1 0 0014.99-12.08c4.68-4.15 9.12-8.48 13.31-12.97 3.67-3.89 7.17-7.78 10.5-11.68 3.33-3.89 6.25-7.54 8.76-10.95 2.51-3.4 4.49-6.45 5.95-9.15 1.46-2.69 2.15-4.83 2.08-6.4 0-.97-.34-2.24-1.01-3.82zm150.15-4.15c-.45 0-1.17.43-2.14 1.29-.97.86-1.96 1.83-2.97 2.92-1.01 1.08-1.99 2.17-2.92 3.25-.94 1.09-1.59 1.86-1.97 2.31-4.72 4.94-9.51 9.6-14.37 13.98-4.87 4.38-9.76 8.24-14.66 11.57s-9.75 5.95-14.54 7.86c-4.8 1.91-9.48 2.86-14.04 2.86-2.77 0-5.26-.69-7.47-2.08a19.367 19.367 0 01-5.61-5.33c-1.54-2.17-2.72-4.58-3.54-7.24-.83-2.66-1.24-5.26-1.24-7.81 0-4.49.51-8.85 1.52-13.08s2.11-8.93 3.31-14.1c1.12-4.11 1.69-7.41 1.69-9.88 0-.9-.27-2.13-.79-3.71-.52-1.57-1.18-3.14-1.96-4.71-.79-1.58-1.63-3-2.53-4.27-.9-1.27-1.69-2.14-2.36-2.58-1.35-.83-2.85-1.45-4.49-1.86-1.65-.41-3.34-.71-5.06-.89-1.72-.19-3.46-.29-5.22-.29h-5c-3.14 0-6.73.87-10.78 2.59-4.04 1.72-8.16 3.98-12.35 6.79-4.19 2.81-8.24 5.99-12.13 9.55-3.89 3.55-7.26 7.13-10.11 10.72-2.69 3.45-5.44 7.38-8.25 11.79a122.65 122.65 0 00-7.64 13.99 96.4 96.4 0 00-5.56 15.1c-1.42 5.17-2.13 10.22-2.13 15.16 0 2.47.35 5.28 1.07 8.43.71 3.14 1.79 6.1 3.25 8.87 1.46 2.77 3.3 5.11 5.51 7.02 2.2 1.91 4.84 2.86 7.91 2.86 2.02 0 4.29-.32 6.8-.95 2.5-.64 5.01-1.46 7.52-2.47a77.78 77.78 0 007.19-3.32c2.28-1.19 4.25-2.32 5.89-3.37 2.93-1.94 5.77-4.08 8.54-6.4 2.77-2.32 5.45-4.72 8.03-7.19 2.58-2.47 5.07-4.92 7.47-7.35 2.39-2.43 4.68-4.77 6.85-7.02.75 3.14 2.02 6.03 3.82 8.65 1.79 2.62 3.93 4.87 6.4 6.74s5.11 3.31 7.92 4.32c2.81 1.01 5.59 1.51 8.36 1.51 5.99.08 11.55-.8 16.68-2.64 5.13-1.83 10.05-4.28 14.77-7.35 4.71-3.07 9.3-6.61 13.76-10.61 4.45-4.01 9-8.15 13.64-12.41 1.35-1.2 2.64-2.45 3.88-3.76 1.23-1.31 2.37-2.57 3.42-3.77 1.05-1.19 2-2.3 2.86-3.31.86-1.01 1.52-1.81 1.97-2.41.52-.68 1.03-1.6 1.52-2.76.48-1.16.93-2.37 1.34-3.65.42-1.27.73-2.52.96-3.76.22-1.23.33-2.3.33-3.2 0-3.07-.78-4.6-2.35-4.6zM1513.95 225c-4.04 6.82-8.92 12.82-14.65 18.03-5.73 5.2-12.11 9.3-19.15 12.29-5.16 2.18-9.47 3.26-12.92 3.26-1.04 0-1.92-.41-2.63-1.23-.72-.83-1.28-1.82-1.69-2.98a19.86 19.86 0 01-.9-3.59c-.19-1.24-.28-2.23-.28-2.98 0-2.47.38-5.22 1.13-8.25.74-3.03 1.75-6.18 3.03-9.44 1.27-3.25 2.77-6.55 4.49-9.88 1.72-3.33 3.5-6.51 5.33-9.55 1.84-3.03 3.71-5.82 5.62-8.36 1.91-2.55 3.72-4.68 5.45-6.4 2.02-2.1 4.09-4.1 6.23-6.01 2.13-1.91 4.36-3.59 6.68-5.05 2.32-1.47 4.7-2.61 7.13-3.43a23.3 23.3 0 017.58-1.24c1.2 0 2.4-.01 3.6-.05 1.19-.04 2.2.54 3.03 1.74.82 1.2 1.31 2.73 1.46 4.6.15 1.88.22 3.45.22 4.72 0 11.98-2.92 23.25-8.76 33.8z" display="inherit"/></g></g></svg>